<mxfile host="app.diagrams.net" modified="2024-02-23T09:30:50.231Z" agent="Mozilla/5.0 (Windows NT 10.0; Win64; x64) AppleWebKit/537.36 (KHTML, like Gecko) Chrome/121.0.0.0 Safari/537.36" version="23.1.5" etag="twvrsMU1P1T1MDpTM1pU" type="github">
  <diagram name="第 1 页" id="wsIqYXQQOJqUddbaiJCN">
    <mxGraphModel>
      <root>
        <mxCell id="0" />
        <mxCell id="1" parent="0" />
      </root>
    </mxGraphModel>
  </diagram>
</mxfile>
